<svg width="1437" height="664" viewBox="0 0 1437 664" fill="none" xmlns="http://www.w3.org/2000/svg">
<g style="mix-blend-mode:soft-light" opacity="0.7">
<path d="M41.8838 9.66992H9.66406V41.9029M41.8838 9.66992V41.9029M41.8838 9.66992H74.1035M41.8838 41.9029H9.66406M41.8838 41.9029V74.1359M41.8838 41.9029H74.1035M9.66406 41.9029V74.1359M41.8838 74.1359H9.66406M41.8838 74.1359V106.369M41.8838 74.1359H74.1035M9.66406 74.1359V106.369M41.8838 106.369H9.66406M41.8838 106.369V138.602M41.8838 106.369H74.1035M9.66406 106.369V138.602M41.8838 138.602H9.66406M41.8838 138.602V170.835M41.8838 138.602H74.1035M9.66406 138.602V170.835M41.8838 170.835H9.66406M41.8838 170.835V203.068M41.8838 170.835H74.1035M9.66406 170.835V203.068M41.8838 203.068H9.66406M41.8838 203.068V235.301M41.8838 203.068H74.1035M9.66406 203.068V235.301M41.8838 235.301H9.66406M41.8838 235.301V267.534M41.8838 235.301H74.1035M9.66406 235.301V267.534M41.8838 267.534H9.66406M41.8838 267.534V299.767M41.8838 267.534H74.1035M9.66406 267.534V299.767M41.8838 299.767H9.66406M41.8838 299.767V332M41.8838 299.767H74.1035M9.66406 299.767V332M41.8838 332H9.66406M41.8838 332V364.233M41.8838 332H74.1035M9.66406 332V364.233M41.8838 364.233H9.66406M41.8838 364.233V396.466M41.8838 364.233H74.1035M9.66406 364.233V396.466M41.8838 396.466H9.66406M41.8838 396.466V428.699M41.8838 396.466H74.1035M9.66406 396.466V428.699M41.8838 428.699H9.66406M41.8838 428.699V460.932M41.8838 428.699H74.1035M9.66406 428.699V460.932M41.8838 460.932H9.66406M41.8838 460.932V493.165M41.8838 460.932H74.1035M9.66406 460.932V493.165M41.8838 493.165H9.66406M41.8838 493.165V525.398M41.8838 493.165H74.1035M9.66406 493.165V525.398M41.8838 525.398H9.66406M41.8838 525.398V557.631M41.8838 525.398H74.1035M9.66406 525.398V557.631M41.8838 557.631H9.66406M41.8838 557.631V589.864M41.8838 557.631H74.1035M9.66406 557.631V589.864M41.8838 589.864H9.66406M41.8838 589.864V622.097M41.8838 589.864H74.1035M9.66406 589.864V622.097M41.8838 622.097H9.66406M41.8838 622.097V654.33M41.8838 622.097H74.1035M9.66406 622.097V654.33H41.8838M41.8838 654.33H74.1035M74.1035 9.66992V41.9029M74.1035 9.66992H106.323M74.1035 41.9029V74.1359M74.1035 41.9029H106.323M74.1035 74.1359V106.369M74.1035 74.1359H106.323M74.1035 106.369V138.602M74.1035 106.369H106.323M74.1035 138.602V170.835M74.1035 138.602H106.323M74.1035 170.835V203.068M74.1035 170.835H106.323M74.1035 203.068V235.301M74.1035 203.068H106.323M74.1035 235.301V267.534M74.1035 235.301H106.323M74.1035 267.534V299.767M74.1035 267.534H106.323M74.1035 299.767V332M74.1035 299.767H106.323M74.1035 332V364.233M74.1035 332H106.323M74.1035 364.233V396.466M74.1035 364.233H106.323M74.1035 396.466V428.699M74.1035 396.466H106.323M74.1035 428.699V460.932M74.1035 428.699H106.323M74.1035 460.932V493.165M74.1035 460.932H106.323M74.1035 493.165V525.398M74.1035 493.165H106.323M74.1035 525.398V557.631M74.1035 525.398H106.323M74.1035 557.631V589.864M74.1035 557.631H106.323M74.1035 589.864V622.097M74.1035 589.864H106.323M74.1035 622.097V654.33M74.1035 622.097H106.323M74.1035 654.33H106.323M106.323 9.66992V41.9029M106.323 9.66992H138.543M106.323 41.9029V74.1359M106.323 41.9029H138.543M106.323 74.1359V106.369M106.323 74.1359H138.543M106.323 106.369V138.602M106.323 106.369H138.543M106.323 138.602V170.835M106.323 138.602H138.543M106.323 170.835V203.068M106.323 170.835H138.543M106.323 203.068V235.301M106.323 203.068H138.543M106.323 235.301V267.534M106.323 235.301H138.543M106.323 267.534V299.767M106.323 267.534H138.543M106.323 299.767V332M106.323 299.767H138.543M106.323 332V364.233M106.323 332H138.543M106.323 364.233V396.466M106.323 364.233H138.543M106.323 396.466V428.699M106.323 396.466H138.543M106.323 428.699V460.932M106.323 428.699H138.543M106.323 460.932V493.165M106.323 460.932H138.543M106.323 493.165V525.398M106.323 493.165H138.543M106.323 525.398V557.631M106.323 525.398H138.543M106.323 557.631V589.864M106.323 557.631H138.543M106.323 589.864V622.097M106.323 589.864H138.543M106.323 622.097V654.33M106.323 622.097H138.543M106.323 654.33H138.543M138.543 9.66992V41.9029M138.543 9.66992H170.763M138.543 41.9029V74.1359M138.543 41.9029H170.763M138.543 74.1359V106.369M138.543 74.1359H170.763M138.543 106.369V138.602M138.543 106.369H170.763M138.543 138.602V170.835M138.543 138.602H170.763M138.543 170.835V203.068M138.543 170.835H170.763M138.543 203.068V235.301M138.543 203.068H170.763M138.543 235.301V267.534M138.543 235.301H170.763M138.543 267.534V299.767M138.543 267.534H170.763M138.543 299.767V332M138.543 299.767H170.763M138.543 332V364.233M138.543 332H170.763M138.543 364.233V396.466M138.543 364.233H170.763M138.543 396.466V428.699M138.543 396.466H170.763M138.543 428.699V460.932M138.543 428.699H170.763M138.543 460.932V493.165M138.543 460.932H170.763M138.543 493.165V525.398M138.543 493.165H170.763M138.543 525.398V557.631M138.543 525.398H170.763M138.543 557.631V589.864M138.543 557.631H170.763M138.543 589.864V622.097M138.543 589.864H170.763M138.543 622.097V654.33M138.543 622.097H170.763M138.543 654.33H170.763M170.763 9.66992V41.9029M170.763 9.66992H202.982M170.763 41.9029V74.1359M170.763 41.9029H202.982M170.763 74.1359V106.369M170.763 74.1359H202.982M170.763 106.369V138.602M170.763 106.369H202.982M170.763 138.602V170.835M170.763 138.602H202.982M170.763 170.835V203.068M170.763 170.835H202.982M170.763 203.068V235.301M170.763 203.068H202.982M170.763 235.301V267.534M170.763 235.301H202.982M170.763 267.534V299.767M170.763 267.534H202.982M170.763 299.767V332M170.763 299.767H202.982M170.763 332V364.233M170.763 332H202.982M170.763 364.233V396.466M170.763 364.233H202.982M170.763 396.466V428.699M170.763 396.466H202.982M170.763 428.699V460.932M170.763 428.699H202.982M170.763 460.932V493.165M170.763 460.932H202.982M170.763 493.165V525.398M170.763 493.165H202.982M170.763 525.398V557.631M170.763 525.398H202.982M170.763 557.631V589.864M170.763 557.631H202.982M170.763 589.864V622.097M170.763 589.864H202.982M170.763 622.097V654.33M170.763 622.097H202.982M170.763 654.33H202.982M202.982 9.66992V41.9029M202.982 9.66992H235.202M202.982 41.9029V74.1359M202.982 41.9029H235.202M202.982 74.1359V106.369M202.982 74.1359H235.202M202.982 106.369V138.602M202.982 106.369H235.202M202.982 138.602V170.835M202.982 138.602H235.202M202.982 170.835V203.068M202.982 170.835H235.202M202.982 203.068V235.301M202.982 203.068H235.202M202.982 235.301V267.534M202.982 235.301H235.202M202.982 267.534V299.767M202.982 267.534H235.202M202.982 299.767V332M202.982 299.767H235.202M202.982 332V364.233M202.982 332H235.202M202.982 364.233V396.466M202.982 364.233H235.202M202.982 396.466V428.699M202.982 396.466H235.202M202.982 428.699V460.932M202.982 428.699H235.202M202.982 460.932V493.165M202.982 460.932H235.202M202.982 493.165V525.398M202.982 493.165H235.202M202.982 525.398V557.631M202.982 525.398H235.202M202.982 557.631V589.864M202.982 557.631H235.202M202.982 589.864V622.097M202.982 589.864H235.202M202.982 622.097V654.33M202.982 622.097H235.202M202.982 654.33H235.202M235.202 9.66992V41.9029M235.202 9.66992H267.422M235.202 41.9029V74.1359M235.202 41.9029H267.422M235.202 74.1359V106.369M235.202 74.1359H267.422M235.202 106.369V138.602M235.202 106.369H267.422M235.202 138.602V170.835M235.202 138.602H267.422M235.202 170.835V203.068M235.202 170.835H267.422M235.202 203.068V235.301M235.202 203.068H267.422M235.202 235.301V267.534M235.202 235.301H267.422M235.202 267.534V299.767M235.202 267.534H267.422M235.202 299.767V332M235.202 299.767H267.422M235.202 332V364.233M235.202 332H267.422M235.202 364.233V396.466M235.202 364.233H267.422M235.202 396.466V428.699M235.202 396.466H267.422M235.202 428.699V460.932M235.202 428.699H267.422M235.202 460.932V493.165M235.202 460.932H267.422M235.202 493.165V525.398M235.202 493.165H267.422M235.202 525.398V557.631M235.202 525.398H267.422M235.202 557.631V589.864M235.202 557.631H267.422M235.202 589.864V622.097M235.202 589.864H267.422M235.202 622.097V654.33M235.202 622.097H267.422M235.202 654.33H267.422M267.422 9.66992V41.9029M267.422 9.66992H299.642M267.422 41.9029V74.1359M267.422 41.9029H299.642M267.422 74.1359V106.369M267.422 74.1359H299.642M267.422 106.369V138.602M267.422 106.369H299.642M267.422 138.602V170.835M267.422 138.602H299.642M267.422 170.835V203.068M267.422 170.835H299.642M267.422 203.068V235.301M267.422 203.068H299.642M267.422 235.301V267.534M267.422 235.301H299.642M267.422 267.534V299.767M267.422 267.534H299.642M267.422 299.767V332M267.422 299.767H299.642M267.422 332V364.233M267.422 332H299.642M267.422 364.233V396.466M267.422 364.233H299.642M267.422 396.466V428.699M267.422 396.466H299.642M267.422 428.699V460.932M267.422 428.699H299.642M267.422 460.932V493.165M267.422 460.932H299.642M267.422 493.165V525.398M267.422 493.165H299.642M267.422 525.398V557.631M267.422 525.398H299.642M267.422 557.631V589.864M267.422 557.631H299.642M267.422 589.864V622.097M267.422 589.864H299.642M267.422 622.097V654.33M267.422 622.097H299.642M267.422 654.33H299.642M299.642 9.66992V41.9029M299.642 9.66992H331.861M299.642 41.9029V74.1359M299.642 41.9029H331.861M299.642 74.1359V106.369M299.642 74.1359H331.861M299.642 106.369V138.602M299.642 106.369H331.861M299.642 138.602V170.835M299.642 138.602H331.861M299.642 170.835V203.068M299.642 170.835H331.861M299.642 203.068V235.301M299.642 203.068H331.861M299.642 235.301V267.534M299.642 235.301H331.861M299.642 267.534V299.767M299.642 267.534H331.861M299.642 299.767V332M299.642 299.767H331.861M299.642 332V364.233M299.642 332H331.861M299.642 364.233V396.466M299.642 364.233H331.861M299.642 396.466V428.699M299.642 396.466H331.861M299.642 428.699V460.932M299.642 428.699H331.861M299.642 460.932V493.165M299.642 460.932H331.861M299.642 493.165V525.398M299.642 493.165H331.861M299.642 525.398V557.631M299.642 525.398H331.861M299.642 557.631V589.864M299.642 557.631H331.861M299.642 589.864V622.097M299.642 589.864H331.861M299.642 622.097V654.33M299.642 622.097H331.861M299.642 654.33H331.861M331.861 9.66992V41.9029M331.861 9.66992H364.081M331.861 41.9029V74.1359M331.861 41.9029H364.081M331.861 74.1359V106.369M331.861 74.1359H364.081M331.861 106.369V138.602M331.861 106.369H364.081M331.861 138.602V170.835M331.861 138.602H364.081M331.861 170.835V203.068M331.861 170.835H364.081M331.861 203.068V235.301M331.861 203.068H364.081M331.861 235.301V267.534M331.861 235.301H364.081M331.861 267.534V299.767M331.861 267.534H364.081M331.861 299.767V332M331.861 299.767H364.081M331.861 332V364.233M331.861 332H364.081M331.861 364.233V396.466M331.861 364.233H364.081M331.861 396.466V428.699M331.861 396.466H364.081M331.861 428.699V460.932M331.861 428.699H364.081M331.861 460.932V493.165M331.861 460.932H364.081M331.861 493.165V525.398M331.861 493.165H364.081M331.861 525.398V557.631M331.861 525.398H364.081M331.861 557.631V589.864M331.861 557.631H364.081M331.861 589.864V622.097M331.861 589.864H364.081M331.861 622.097V654.33M331.861 622.097H364.081M331.861 654.33H364.081M364.081 9.66992V41.9029M364.081 9.66992H396.301M364.081 41.9029V74.1359M364.081 41.9029H396.301M364.081 74.1359V106.369M364.081 74.1359H396.301M364.081 106.369V138.602M364.081 106.369H396.301M364.081 138.602V170.835M364.081 138.602H396.301M364.081 170.835V203.068M364.081 170.835H396.301M364.081 203.068V235.301M364.081 203.068H396.301M364.081 235.301V267.534M364.081 235.301H396.301M364.081 267.534V299.767M364.081 267.534H396.301M364.081 299.767V332M364.081 299.767H396.301M364.081 332V364.233M364.081 332H396.301M364.081 364.233V396.466M364.081 364.233H396.301M364.081 396.466V428.699M364.081 396.466H396.301M364.081 428.699V460.932M364.081 428.699H396.301M364.081 460.932V493.165M364.081 460.932H396.301M364.081 493.165V525.398M364.081 493.165H396.301M364.081 525.398V557.631M364.081 525.398H396.301M364.081 557.631V589.864M364.081 557.631H396.301M364.081 589.864V622.097M364.081 589.864H396.301M364.081 622.097V654.33M364.081 622.097H396.301M364.081 654.33H396.301M396.301 9.66992V41.9029M396.301 9.66992H428.521M396.301 41.9029V74.1359M396.301 41.9029H428.521M396.301 74.1359V106.369M396.301 74.1359H428.521M396.301 106.369V138.602M396.301 106.369H428.521M396.301 138.602V170.835M396.301 138.602H428.521M396.301 170.835V203.068M396.301 170.835H428.521M396.301 203.068V235.301M396.301 203.068H428.521M396.301 235.301V267.534M396.301 235.301H428.521M396.301 267.534V299.767M396.301 267.534H428.521M396.301 299.767V332M396.301 299.767H428.521M396.301 332V364.233M396.301 332H428.521M396.301 364.233V396.466M396.301 364.233H428.521M396.301 396.466V428.699M396.301 396.466H428.521M396.301 428.699V460.932M396.301 428.699H428.521M396.301 460.932V493.165M396.301 460.932H428.521M396.301 493.165V525.398M396.301 493.165H428.521M396.301 525.398V557.631M396.301 525.398H428.521M396.301 557.631V589.864M396.301 557.631H428.521M396.301 589.864V622.097M396.301 589.864H428.521M396.301 622.097V654.33M396.301 622.097H428.521M396.301 654.33H428.521M428.521 9.66992V41.9029M428.521 9.66992H460.74M428.521 41.9029V74.1359M428.521 41.9029H460.74M428.521 74.1359V106.369M428.521 74.1359H460.74M428.521 106.369V138.602M428.521 106.369H460.74M428.521 138.602V170.835M428.521 138.602H460.74M428.521 170.835V203.068M428.521 170.835H460.74M428.521 203.068V235.301M428.521 203.068H460.74M428.521 235.301V267.534M428.521 235.301H460.74M428.521 267.534V299.767M428.521 267.534H460.74M428.521 299.767V332M428.521 299.767H460.74M428.521 332V364.233M428.521 332H460.74M428.521 364.233V396.466M428.521 364.233H460.74M428.521 396.466V428.699M428.521 396.466H460.74M428.521 428.699V460.932M428.521 428.699H460.74M428.521 460.932V493.165M428.521 460.932H460.74M428.521 493.165V525.398M428.521 493.165H460.74M428.521 525.398V557.631M428.521 525.398H460.74M428.521 557.631V589.864M428.521 557.631H460.74M428.521 589.864V622.097M428.521 589.864H460.74M428.521 622.097V654.33M428.521 622.097H460.74M428.521 654.33H460.74M460.74 9.66992V41.9029M460.74 9.66992H492.96M460.74 41.9029V74.1359M460.74 41.9029H492.96M460.74 74.1359V106.369M460.74 74.1359H492.96M460.74 106.369V138.602M460.74 106.369H492.96M460.74 138.602V170.835M460.74 138.602H492.96M460.74 170.835V203.068M460.74 170.835H492.96M460.74 203.068V235.301M460.74 203.068H492.96M460.74 235.301V267.534M460.74 235.301H492.96M460.74 267.534V299.767M460.74 267.534H492.96M460.74 299.767V332M460.74 299.767H492.96M460.74 332V364.233M460.74 332H492.96M460.74 364.233V396.466M460.74 364.233H492.96M460.74 396.466V428.699M460.74 396.466H492.96M460.74 428.699V460.932M460.74 428.699H492.96M460.74 460.932V493.165M460.74 460.932H492.96M460.74 493.165V525.398M460.74 493.165H492.96M460.74 525.398V557.631M460.74 525.398H492.96M460.74 557.631V589.864M460.74 557.631H492.96M460.74 589.864V622.097M460.74 589.864H492.96M460.74 622.097V654.33M460.74 622.097H492.96M460.74 654.33H492.96M492.96 9.66992V41.9029M492.96 9.66992H525.18M492.96 41.9029V74.1359M492.96 41.9029H525.18M492.96 74.1359V106.369M492.96 74.1359H525.18M492.96 106.369V138.602M492.96 106.369H525.18M492.96 138.602V170.835M492.96 138.602H525.18M492.96 170.835V203.068M492.96 170.835H525.18M492.96 203.068V235.301M492.96 203.068H525.18M492.96 235.301V267.534M492.96 235.301H525.18M492.96 267.534V299.767M492.96 267.534H525.18M492.96 299.767V332M492.96 299.767H525.18M492.96 332V364.233M492.96 332H525.18M492.96 364.233V396.466M492.96 364.233H525.18M492.96 396.466V428.699M492.96 396.466H525.18M492.96 428.699V460.932M492.96 428.699H525.18M492.96 460.932V493.165M492.96 460.932H525.18M492.96 493.165V525.398M492.96 493.165H525.18M492.96 525.398V557.631M492.96 525.398H525.18M492.96 557.631V589.864M492.96 557.631H525.18M492.96 589.864V622.097M492.96 589.864H525.18M492.96 622.097V654.33M492.96 622.097H525.18M492.96 654.33H525.18M525.18 9.66992V41.9029M525.18 9.66992H557.4M525.18 41.9029V74.1359M525.18 41.9029H557.4M525.18 74.1359V106.369M525.18 74.1359H557.4M525.18 106.369V138.602M525.18 106.369H557.4M525.18 138.602V170.835M525.18 138.602H557.4M525.18 170.835V203.068M525.18 170.835H557.4M525.18 203.068V235.301M525.18 203.068H557.4M525.18 235.301V267.534M525.18 235.301H557.4M525.18 267.534V299.767M525.18 267.534H557.4M525.18 299.767V332M525.18 299.767H557.4M525.18 332V364.233M525.18 332H557.4M525.18 364.233V396.466M525.18 364.233H557.4M525.18 396.466V428.699M525.18 396.466H557.4M525.18 428.699V460.932M525.18 428.699H557.4M525.18 460.932V493.165M525.18 460.932H557.4M525.18 493.165V525.398M525.18 493.165H557.4M525.18 525.398V557.631M525.18 525.398H557.4M525.18 557.631V589.864M525.18 557.631H557.4M525.18 589.864V622.097M525.18 589.864H557.4M525.18 622.097V654.33M525.18 622.097H557.4M525.18 654.33H557.4M557.4 9.66992V41.9029M557.4 9.66992H589.619M557.4 41.9029V74.1359M557.4 41.9029H589.619M557.4 74.1359V106.369M557.4 74.1359H589.619M557.4 106.369V138.602M557.4 106.369H589.619M557.4 138.602V170.835M557.4 138.602H589.619M557.4 170.835V203.068M557.4 170.835H589.619M557.4 203.068V235.301M557.4 203.068H589.619M557.4 235.301V267.534M557.4 235.301H589.619M557.4 267.534V299.767M557.4 267.534H589.619M557.4 299.767V332M557.4 299.767H589.619M557.4 332V364.233M557.4 332H589.619M557.4 364.233V396.466M557.4 364.233H589.619M557.4 396.466V428.699M557.4 396.466H589.619M557.4 428.699V460.932M557.4 428.699H589.619M557.4 460.932V493.165M557.4 460.932H589.619M557.4 493.165V525.398M557.4 493.165H589.619M557.4 525.398V557.631M557.4 525.398H589.619M557.4 557.631V589.864M557.4 557.631H589.619M557.4 589.864V622.097M557.4 589.864H589.619M557.4 622.097V654.33M557.4 622.097H589.619M557.4 654.33H589.619M589.619 9.66992V41.9029M589.619 9.66992H621.839M589.619 41.9029V74.1359M589.619 41.9029H621.839M589.619 74.1359V106.369M589.619 74.1359H621.839M589.619 106.369V138.602M589.619 106.369H621.839M589.619 138.602V170.835M589.619 138.602H621.839M589.619 170.835V203.068M589.619 170.835H621.839M589.619 203.068V235.301M589.619 203.068H621.839M589.619 235.301V267.534M589.619 235.301H621.839M589.619 267.534V299.767M589.619 267.534H621.839M589.619 299.767V332M589.619 299.767H621.839M589.619 332V364.233M589.619 332H621.839M589.619 364.233V396.466M589.619 364.233H621.839M589.619 396.466V428.699M589.619 396.466H621.839M589.619 428.699V460.932M589.619 428.699H621.839M589.619 460.932V493.165M589.619 460.932H621.839M589.619 493.165V525.398M589.619 493.165H621.839M589.619 525.398V557.631M589.619 525.398H621.839M589.619 557.631V589.864M589.619 557.631H621.839M589.619 589.864V622.097M589.619 589.864H621.839M589.619 622.097V654.33M589.619 622.097H621.839M589.619 654.33H621.839M621.839 9.66992V41.9029M621.839 9.66992H654.059M621.839 41.9029V74.1359M621.839 41.9029H654.059M621.839 74.1359V106.369M621.839 74.1359H654.059M621.839 106.369V138.602M621.839 106.369H654.059M621.839 138.602V170.835M621.839 138.602H654.059M621.839 170.835V203.068M621.839 170.835H654.059M621.839 203.068V235.301M621.839 203.068H654.059M621.839 235.301V267.534M621.839 235.301H654.059M621.839 267.534V299.767M621.839 267.534H654.059M621.839 299.767V332M621.839 299.767H654.059M621.839 332V364.233M621.839 332H654.059M621.839 364.233V396.466M621.839 364.233H654.059M621.839 396.466V428.699M621.839 396.466H654.059M621.839 428.699V460.932M621.839 428.699H654.059M621.839 460.932V493.165M621.839 460.932H654.059M621.839 493.165V525.398M621.839 493.165H654.059M621.839 525.398V557.631M621.839 525.398H654.059M621.839 557.631V589.864M621.839 557.631H654.059M621.839 589.864V622.097M621.839 589.864H654.059M621.839 622.097V654.33M621.839 622.097H654.059M621.839 654.33H654.059M654.059 9.66992V41.9029M654.059 9.66992H686.278M654.059 41.9029V74.1359M654.059 41.9029H686.278M654.059 74.1359V106.369M654.059 74.1359H686.278M654.059 106.369V138.602M654.059 106.369H686.278M654.059 138.602V170.835M654.059 138.602H686.278M654.059 170.835V203.068M654.059 170.835H686.278M654.059 203.068V235.301M654.059 203.068H686.278M654.059 235.301V267.534M654.059 235.301H686.278M654.059 267.534V299.767M654.059 267.534H686.278M654.059 299.767V332M654.059 299.767H686.278M654.059 332V364.233M654.059 332H686.278M654.059 364.233V396.466M654.059 364.233H686.278M654.059 396.466V428.699M654.059 396.466H686.278M654.059 428.699V460.932M654.059 428.699H686.278M654.059 460.932V493.165M654.059 460.932H686.278M654.059 493.165V525.398M654.059 493.165H686.278M654.059 525.398V557.631M654.059 525.398H686.278M654.059 557.631V589.864M654.059 557.631H686.278M654.059 589.864V622.097M654.059 589.864H686.278M654.059 622.097V654.33M654.059 622.097H686.278M654.059 654.33H686.278M686.278 9.66992V41.9029M686.278 9.66992H718.498M686.278 41.9029V74.1359M686.278 41.9029H718.498M686.278 74.1359V106.369M686.278 74.1359H718.498M686.278 106.369V138.602M686.278 106.369H718.498M686.278 138.602V170.835M686.278 138.602H718.498M686.278 170.835V203.068M686.278 170.835H718.498M686.278 203.068V235.301M686.278 203.068H718.498M686.278 235.301V267.534M686.278 235.301H718.498M686.278 267.534V299.767M686.278 267.534H718.498M686.278 299.767V332M686.278 299.767H718.498M686.278 332V364.233M686.278 332H718.498M686.278 364.233V396.466M686.278 364.233H718.498M686.278 396.466V428.699M686.278 396.466H718.498M686.278 428.699V460.932M686.278 428.699H718.498M686.278 460.932V493.165M686.278 460.932H718.498M686.278 493.165V525.398M686.278 493.165H718.498M686.278 525.398V557.631M686.278 525.398H718.498M686.278 557.631V589.864M686.278 557.631H718.498M686.278 589.864V622.097M686.278 589.864H718.498M686.278 622.097V654.33M686.278 622.097H718.498M686.278 654.33H718.498M718.498 9.66992V41.9029M718.498 9.66992H750.718M718.498 41.9029V74.1359M718.498 41.9029H750.718M718.498 74.1359V106.369M718.498 74.1359H750.718M718.498 106.369V138.602M718.498 106.369H750.718M718.498 138.602V170.835M718.498 138.602H750.718M718.498 170.835V203.068M718.498 170.835H750.718M718.498 203.068V235.301M718.498 203.068H750.718M718.498 235.301V267.534M718.498 235.301H750.718M718.498 267.534V299.767M718.498 267.534H750.718M718.498 299.767V332M718.498 299.767H750.718M718.498 332V364.233M718.498 332H750.718M718.498 364.233V396.466M718.498 364.233H750.718M718.498 396.466V428.699M718.498 396.466H750.718M718.498 428.699V460.932M718.498 428.699H750.718M718.498 460.932V493.165M718.498 460.932H750.718M718.498 493.165V525.398M718.498 493.165H750.718M718.498 525.398V557.631M718.498 525.398H750.718M718.498 557.631V589.864M718.498 557.631H750.718M718.498 589.864V622.097M718.498 589.864H750.718M718.498 622.097V654.33M718.498 622.097H750.718M718.498 654.33H750.718M750.718 9.66992V41.9029M750.718 9.66992H782.938M750.718 41.9029V74.1359M750.718 41.9029H782.938M750.718 74.1359V106.369M750.718 74.1359H782.938M750.718 106.369V138.602M750.718 106.369H782.938M750.718 138.602V170.835M750.718 138.602H782.938M750.718 170.835V203.068M750.718 170.835H782.938M750.718 203.068V235.301M750.718 203.068H782.938M750.718 235.301V267.534M750.718 235.301H782.938M750.718 267.534V299.767M750.718 267.534H782.938M750.718 299.767V332M750.718 299.767H782.938M750.718 332V364.233M750.718 332H782.938M750.718 364.233V396.466M750.718 364.233H782.938M750.718 396.466V428.699M750.718 396.466H782.938M750.718 428.699V460.932M750.718 428.699H782.938M750.718 460.932V493.165M750.718 460.932H782.938M750.718 493.165V525.398M750.718 493.165H782.938M750.718 525.398V557.631M750.718 525.398H782.938M750.718 557.631V589.864M750.718 557.631H782.938M750.718 589.864V622.097M750.718 589.864H782.938M750.718 622.097V654.33M750.718 622.097H782.938M750.718 654.33H782.938M782.938 9.66992V41.9029M782.938 9.66992H815.157M782.938 41.9029V74.1359M782.938 41.9029H815.157M782.938 74.1359V106.369M782.938 74.1359H815.157M782.938 106.369V138.602M782.938 106.369H815.157M782.938 138.602V170.835M782.938 138.602H815.157M782.938 170.835V203.068M782.938 170.835H815.157M782.938 203.068V235.301M782.938 203.068H815.157M782.938 235.301V267.534M782.938 235.301H815.157M782.938 267.534V299.767M782.938 267.534H815.157M782.938 299.767V332M782.938 299.767H815.157M782.938 332V364.233M782.938 332H815.157M782.938 364.233V396.466M782.938 364.233H815.157M782.938 396.466V428.699M782.938 396.466H815.157M782.938 428.699V460.932M782.938 428.699H815.157M782.938 460.932V493.165M782.938 460.932H815.157M782.938 493.165V525.398M782.938 493.165H815.157M782.938 525.398V557.631M782.938 525.398H815.157M782.938 557.631V589.864M782.938 557.631H815.157M782.938 589.864V622.097M782.938 589.864H815.157M782.938 622.097V654.33M782.938 622.097H815.157M782.938 654.33H815.157M815.157 9.66992V41.9029M815.157 9.66992H847.377M815.157 41.9029V74.1359M815.157 41.9029H847.377M815.157 74.1359V106.369M815.157 74.1359H847.377M815.157 106.369V138.602M815.157 106.369H847.377M815.157 138.602V170.835M815.157 138.602H847.377M815.157 170.835V203.068M815.157 170.835H847.377M815.157 203.068V235.301M815.157 203.068H847.377M815.157 235.301V267.534M815.157 235.301H847.377M815.157 267.534V299.767M815.157 267.534H847.377M815.157 299.767V332M815.157 299.767H847.377M815.157 332V364.233M815.157 332H847.377M815.157 364.233V396.466M815.157 364.233H847.377M815.157 396.466V428.699M815.157 396.466H847.377M815.157 428.699V460.932M815.157 428.699H847.377M815.157 460.932V493.165M815.157 460.932H847.377M815.157 493.165V525.398M815.157 493.165H847.377M815.157 525.398V557.631M815.157 525.398H847.377M815.157 557.631V589.864M815.157 557.631H847.377M815.157 589.864V622.097M815.157 589.864H847.377M815.157 622.097V654.33M815.157 622.097H847.377M815.157 654.33H847.377M847.377 9.66992V41.9029M847.377 9.66992H879.597M847.377 41.9029V74.1359M847.377 41.9029H879.597M847.377 74.1359V106.369M847.377 74.1359H879.597M847.377 106.369V138.602M847.377 106.369H879.597M847.377 138.602V170.835M847.377 138.602H879.597M847.377 170.835V203.068M847.377 170.835H879.597M847.377 203.068V235.301M847.377 203.068H879.597M847.377 235.301V267.534M847.377 235.301H879.597M847.377 267.534V299.767M847.377 267.534H879.597M847.377 299.767V332M847.377 299.767H879.597M847.377 332V364.233M847.377 332H879.597M847.377 364.233V396.466M847.377 364.233H879.597M847.377 396.466V428.699M847.377 396.466H879.597M847.377 428.699V460.932M847.377 428.699H879.597M847.377 460.932V493.165M847.377 460.932H879.597M847.377 493.165V525.398M847.377 493.165H879.597M847.377 525.398V557.631M847.377 525.398H879.597M847.377 557.631V589.864M847.377 557.631H879.597M847.377 589.864V622.097M847.377 589.864H879.597M847.377 622.097V654.33M847.377 622.097H879.597M847.377 654.33H879.597M879.597 9.66992V41.9029M879.597 9.66992H911.817M879.597 41.9029V74.1359M879.597 41.9029H911.817M879.597 74.1359V106.369M879.597 74.1359H911.817M879.597 106.369V138.602M879.597 106.369H911.817M879.597 138.602V170.835M879.597 138.602H911.817M879.597 170.835V203.068M879.597 170.835H911.817M879.597 203.068V235.301M879.597 203.068H911.817M879.597 235.301V267.534M879.597 235.301H911.817M879.597 267.534V299.767M879.597 267.534H911.817M879.597 299.767V332M879.597 299.767H911.817M879.597 332V364.233M879.597 332H911.817M879.597 364.233V396.466M879.597 364.233H911.817M879.597 396.466V428.699M879.597 396.466H911.817M879.597 428.699V460.932M879.597 428.699H911.817M879.597 460.932V493.165M879.597 460.932H911.817M879.597 493.165V525.398M879.597 493.165H911.817M879.597 525.398V557.631M879.597 525.398H911.817M879.597 557.631V589.864M879.597 557.631H911.817M879.597 589.864V622.097M879.597 589.864H911.817M879.597 622.097V654.33M879.597 622.097H911.817M879.597 654.33H911.817M911.817 9.66992V41.9029M911.817 9.66992H944.036M911.817 41.9029V74.1359M911.817 41.9029H944.036M911.817 74.1359V106.369M911.817 74.1359H944.036M911.817 106.369V138.602M911.817 106.369H944.036M911.817 138.602V170.835M911.817 138.602H944.036M911.817 170.835V203.068M911.817 170.835H944.036M911.817 203.068V235.301M911.817 203.068H944.036M911.817 235.301V267.534M911.817 235.301H944.036M911.817 267.534V299.767M911.817 267.534H944.036M911.817 299.767V332M911.817 299.767H944.036M911.817 332V364.233M911.817 332H944.036M911.817 364.233V396.466M911.817 364.233H944.036M911.817 396.466V428.699M911.817 396.466H944.036M911.817 428.699V460.932M911.817 428.699H944.036M911.817 460.932V493.165M911.817 460.932H944.036M911.817 493.165V525.398M911.817 493.165H944.036M911.817 525.398V557.631M911.817 525.398H944.036M911.817 557.631V589.864M911.817 557.631H944.036M911.817 589.864V622.097M911.817 589.864H944.036M911.817 622.097V654.33M911.817 622.097H944.036M911.817 654.33H944.036M944.036 9.66992V41.9029M944.036 9.66992H976.256M944.036 41.9029V74.1359M944.036 41.9029H976.256M944.036 74.1359V106.369M944.036 74.1359H976.256M944.036 106.369V138.602M944.036 106.369H976.256M944.036 138.602V170.835M944.036 138.602H976.256M944.036 170.835V203.068M944.036 170.835H976.256M944.036 203.068V235.301M944.036 203.068H976.256M944.036 235.301V267.534M944.036 235.301H976.256M944.036 267.534V299.767M944.036 267.534H976.256M944.036 299.767V332M944.036 299.767H976.256M944.036 332V364.233M944.036 332H976.256M944.036 364.233V396.466M944.036 364.233H976.256M944.036 396.466V428.699M944.036 396.466H976.256M944.036 428.699V460.932M944.036 428.699H976.256M944.036 460.932V493.165M944.036 460.932H976.256M944.036 493.165V525.398M944.036 493.165H976.256M944.036 525.398V557.631M944.036 525.398H976.256M944.036 557.631V589.864M944.036 557.631H976.256M944.036 589.864V622.097M944.036 589.864H976.256M944.036 622.097V654.33M944.036 622.097H976.256M944.036 654.33H976.256M976.256 9.66992V41.9029M976.256 9.66992H1008.48M976.256 41.9029V74.1359M976.256 41.9029H1008.48M976.256 74.1359V106.369M976.256 74.1359H1008.48M976.256 106.369V138.602M976.256 106.369H1008.48M976.256 138.602V170.835M976.256 138.602H1008.48M976.256 170.835V203.068M976.256 170.835H1008.48M976.256 203.068V235.301M976.256 203.068H1008.48M976.256 235.301V267.534M976.256 235.301H1008.48M976.256 267.534V299.767M976.256 267.534H1008.48M976.256 299.767V332M976.256 299.767H1008.48M976.256 332V364.233M976.256 332H1008.48M976.256 364.233V396.466M976.256 364.233H1008.48M976.256 396.466V428.699M976.256 396.466H1008.48M976.256 428.699V460.932M976.256 428.699H1008.48M976.256 460.932V493.165M976.256 460.932H1008.48M976.256 493.165V525.398M976.256 493.165H1008.48M976.256 525.398V557.631M976.256 525.398H1008.48M976.256 557.631V589.864M976.256 557.631H1008.48M976.256 589.864V622.097M976.256 589.864H1008.48M976.256 622.097V654.33M976.256 622.097H1008.48M976.256 654.33H1008.48M1008.48 9.66992V41.9029M1008.48 9.66992H1040.7M1008.48 41.9029V74.1359M1008.48 41.9029H1040.7M1008.48 74.1359V106.369M1008.48 74.1359H1040.7M1008.48 106.369V138.602M1008.48 106.369H1040.7M1008.48 138.602V170.835M1008.48 138.602H1040.7M1008.48 170.835V203.068M1008.48 170.835H1040.7M1008.48 203.068V235.301M1008.48 203.068H1040.7M1008.48 235.301V267.534M1008.48 235.301H1040.7M1008.48 267.534V299.767M1008.48 267.534H1040.7M1008.48 299.767V332M1008.48 299.767H1040.7M1008.48 332V364.233M1008.48 332H1040.7M1008.48 364.233V396.466M1008.48 364.233H1040.7M1008.48 396.466V428.699M1008.48 396.466H1040.7M1008.48 428.699V460.932M1008.48 428.699H1040.7M1008.48 460.932V493.165M1008.48 460.932H1040.7M1008.48 493.165V525.398M1008.48 493.165H1040.7M1008.48 525.398V557.631M1008.48 525.398H1040.7M1008.48 557.631V589.864M1008.48 557.631H1040.7M1008.48 589.864V622.097M1008.48 589.864H1040.7M1008.48 622.097V654.33M1008.48 622.097H1040.7M1008.48 654.33H1040.7M1040.7 9.66992V41.9029M1040.7 9.66992H1072.92M1040.7 41.9029V74.1359M1040.7 41.9029H1072.92M1040.7 74.1359V106.369M1040.7 74.1359H1072.92M1040.7 106.369V138.602M1040.7 106.369H1072.92M1040.7 138.602V170.835M1040.7 138.602H1072.92M1040.7 170.835V203.068M1040.7 170.835H1072.92M1040.7 203.068V235.301M1040.7 203.068H1072.92M1040.7 235.301V267.534M1040.7 235.301H1072.92M1040.7 267.534V299.767M1040.7 267.534H1072.92M1040.7 299.767V332M1040.7 299.767H1072.92M1040.7 332V364.233M1040.7 332H1072.92M1040.7 364.233V396.466M1040.7 364.233H1072.92M1040.7 396.466V428.699M1040.7 396.466H1072.92M1040.7 428.699V460.932M1040.7 428.699H1072.92M1040.7 460.932V493.165M1040.7 460.932H1072.92M1040.7 493.165V525.398M1040.7 493.165H1072.92M1040.7 525.398V557.631M1040.7 525.398H1072.92M1040.7 557.631V589.864M1040.7 557.631H1072.92M1040.7 589.864V622.097M1040.7 589.864H1072.92M1040.7 622.097V654.33M1040.7 622.097H1072.92M1040.7 654.33H1072.92M1072.92 9.66992V41.9029M1072.92 9.66992H1105.13M1072.92 41.9029V74.1359M1072.92 41.9029H1105.13M1072.92 74.1359V106.369M1072.92 74.1359H1105.13M1072.92 106.369V138.602M1072.92 106.369H1105.13M1072.92 138.602V170.835M1072.92 138.602H1105.13M1072.92 170.835V203.068M1072.92 170.835H1105.13M1072.92 203.068V235.301M1072.92 203.068H1105.13M1072.92 235.301V267.534M1072.92 235.301H1105.13M1072.92 267.534V299.767M1072.92 267.534H1105.13M1072.92 299.767V332M1072.92 299.767H1105.13M1072.92 332V364.233M1072.92 332H1105.13M1072.92 364.233V396.466M1072.92 364.233H1105.13M1072.92 396.466V428.699M1072.92 396.466H1105.13M1072.92 428.699V460.932M1072.92 428.699H1105.13M1072.92 460.932V493.165M1072.92 460.932H1105.13M1072.92 493.165V525.398M1072.92 493.165H1105.13M1072.92 525.398V557.631M1072.92 525.398H1105.13M1072.92 557.631V589.864M1072.92 557.631H1105.13M1072.92 589.864V622.097M1072.92 589.864H1105.13M1072.92 622.097V654.33M1072.92 622.097H1105.13M1072.92 654.33H1105.13M1105.13 9.66992V41.9029M1105.13 9.66992H1137.35M1105.13 41.9029V74.1359M1105.13 41.9029H1137.35M1105.13 74.1359V106.369M1105.13 74.1359H1137.35M1105.13 106.369V138.602M1105.13 106.369H1137.35M1105.13 138.602V170.835M1105.13 138.602H1137.35M1105.13 170.835V203.068M1105.13 170.835H1137.35M1105.13 203.068V235.301M1105.13 203.068H1137.35M1105.13 235.301V267.534M1105.13 235.301H1137.35M1105.13 267.534V299.767M1105.13 267.534H1137.35M1105.13 299.767V332M1105.13 299.767H1137.35M1105.13 332V364.233M1105.13 332H1137.35M1105.13 364.233V396.466M1105.13 364.233H1137.35M1105.13 396.466V428.699M1105.13 396.466H1137.35M1105.13 428.699V460.932M1105.13 428.699H1137.35M1105.13 460.932V493.165M1105.13 460.932H1137.35M1105.13 493.165V525.398M1105.13 493.165H1137.35M1105.13 525.398V557.631M1105.13 525.398H1137.35M1105.13 557.631V589.864M1105.13 557.631H1137.35M1105.13 589.864V622.097M1105.13 589.864H1137.35M1105.13 622.097V654.33M1105.13 622.097H1137.35M1105.13 654.33H1137.35M1137.35 9.66992V41.9029M1137.35 9.66992H1169.57M1137.35 41.9029V74.1359M1137.35 41.9029H1169.57M1137.35 74.1359V106.369M1137.35 74.1359H1169.57M1137.35 106.369V138.602M1137.35 106.369H1169.57M1137.35 138.602V170.835M1137.35 138.602H1169.57M1137.35 170.835V203.068M1137.35 170.835H1169.57M1137.35 203.068V235.301M1137.35 203.068H1169.57M1137.35 235.301V267.534M1137.35 235.301H1169.57M1137.35 267.534V299.767M1137.35 267.534H1169.57M1137.35 299.767V332M1137.35 299.767H1169.57M1137.35 332V364.233M1137.35 332H1169.57M1137.35 364.233V396.466M1137.35 364.233H1169.57M1137.35 396.466V428.699M1137.35 396.466H1169.57M1137.35 428.699V460.932M1137.35 428.699H1169.57M1137.35 460.932V493.165M1137.35 460.932H1169.57M1137.35 493.165V525.398M1137.35 493.165H1169.57M1137.35 525.398V557.631M1137.35 525.398H1169.57M1137.35 557.631V589.864M1137.35 557.631H1169.57M1137.35 589.864V622.097M1137.35 589.864H1169.57M1137.35 622.097V654.33M1137.35 622.097H1169.57M1137.35 654.33H1169.57M1169.57 9.66992V41.9029M1169.57 9.66992H1201.79M1169.57 41.9029V74.1359M1169.57 41.9029H1201.79M1169.57 74.1359V106.369M1169.57 74.1359H1201.79M1169.57 106.369V138.602M1169.57 106.369H1201.79M1169.57 138.602V170.835M1169.57 138.602H1201.79M1169.57 170.835V203.068M1169.57 170.835H1201.79M1169.57 203.068V235.301M1169.57 203.068H1201.79M1169.57 235.301V267.534M1169.57 235.301H1201.79M1169.57 267.534V299.767M1169.57 267.534H1201.79M1169.57 299.767V332M1169.57 299.767H1201.79M1169.57 332V364.233M1169.57 332H1201.79M1169.57 364.233V396.466M1169.57 364.233H1201.79M1169.57 396.466V428.699M1169.57 396.466H1201.79M1169.57 428.699V460.932M1169.57 428.699H1201.79M1169.57 460.932V493.165M1169.57 460.932H1201.79M1169.57 493.165V525.398M1169.57 493.165H1201.79M1169.57 525.398V557.631M1169.57 525.398H1201.79M1169.57 557.631V589.864M1169.57 557.631H1201.79M1169.57 589.864V622.097M1169.57 589.864H1201.79M1169.57 622.097V654.33M1169.57 622.097H1201.79M1169.57 654.33H1201.79M1201.79 9.66992V41.9029M1201.79 9.66992H1234.01M1201.79 41.9029V74.1359M1201.79 41.9029H1234.01M1201.79 74.1359V106.369M1201.79 74.1359H1234.01M1201.79 106.369V138.602M1201.79 106.369H1234.01M1201.79 138.602V170.835M1201.79 138.602H1234.01M1201.79 170.835V203.068M1201.79 170.835H1234.01M1201.79 203.068V235.301M1201.79 203.068H1234.01M1201.79 235.301V267.534M1201.79 235.301H1234.01M1201.79 267.534V299.767M1201.79 267.534H1234.01M1201.79 299.767V332M1201.79 299.767H1234.01M1201.79 332V364.233M1201.79 332H1234.01M1201.79 364.233V396.466M1201.79 364.233H1234.01M1201.79 396.466V428.699M1201.79 396.466H1234.01M1201.79 428.699V460.932M1201.79 428.699H1234.01M1201.79 460.932V493.165M1201.79 460.932H1234.01M1201.79 493.165V525.398M1201.79 493.165H1234.01M1201.79 525.398V557.631M1201.79 525.398H1234.01M1201.79 557.631V589.864M1201.79 557.631H1234.01M1201.79 589.864V622.097M1201.79 589.864H1234.01M1201.79 622.097V654.33M1201.79 622.097H1234.01M1201.79 654.33H1234.01M1234.01 9.66992V41.9029M1234.01 9.66992H1266.23M1234.01 41.9029V74.1359M1234.01 41.9029H1266.23M1234.01 74.1359V106.369M1234.01 74.1359H1266.23M1234.01 106.369V138.602M1234.01 106.369H1266.23M1234.01 138.602V170.835M1234.01 138.602H1266.23M1234.01 170.835V203.068M1234.01 170.835H1266.23M1234.01 203.068V235.301M1234.01 203.068H1266.23M1234.01 235.301V267.534M1234.01 235.301H1266.23M1234.01 267.534V299.767M1234.01 267.534H1266.23M1234.01 299.767V332M1234.01 299.767H1266.23M1234.01 332V364.233M1234.01 332H1266.23M1234.01 364.233V396.466M1234.01 364.233H1266.23M1234.01 396.466V428.699M1234.01 396.466H1266.23M1234.01 428.699V460.932M1234.01 428.699H1266.23M1234.01 460.932V493.165M1234.01 460.932H1266.23M1234.01 493.165V525.398M1234.01 493.165H1266.23M1234.01 525.398V557.631M1234.01 525.398H1266.23M1234.01 557.631V589.864M1234.01 557.631H1266.23M1234.01 589.864V622.097M1234.01 589.864H1266.23M1234.01 622.097V654.33M1234.01 622.097H1266.23M1234.01 654.33H1266.23M1266.23 9.66992V41.9029M1266.23 9.66992H1298.45M1266.23 41.9029V74.1359M1266.23 41.9029H1298.45M1266.23 74.1359V106.369M1266.23 74.1359H1298.45M1266.23 106.369V138.602M1266.23 106.369H1298.45M1266.23 138.602V170.835M1266.23 138.602H1298.45M1266.23 170.835V203.068M1266.23 170.835H1298.45M1266.23 203.068V235.301M1266.23 203.068H1298.45M1266.23 235.301V267.534M1266.23 235.301H1298.45M1266.23 267.534V299.767M1266.23 267.534H1298.45M1266.23 299.767V332M1266.23 299.767H1298.45M1266.23 332V364.233M1266.23 332H1298.45M1266.23 364.233V396.466M1266.23 364.233H1298.45M1266.23 396.466V428.699M1266.23 396.466H1298.45M1266.23 428.699V460.932M1266.23 428.699H1298.45M1266.23 460.932V493.165M1266.23 460.932H1298.45M1266.23 493.165V525.398M1266.23 493.165H1298.45M1266.23 525.398V557.631M1266.23 525.398H1298.45M1266.23 557.631V589.864M1266.23 557.631H1298.45M1266.23 589.864V622.097M1266.23 589.864H1298.45M1266.23 622.097V654.33M1266.23 622.097H1298.45M1266.23 654.33H1298.45M1298.45 9.66992V41.9029M1298.45 9.66992H1330.67M1298.45 41.9029V74.1359M1298.45 41.9029H1330.67M1298.45 74.1359V106.369M1298.45 74.1359H1330.67M1298.45 106.369V138.602M1298.45 106.369H1330.67M1298.45 138.602V170.835M1298.45 138.602H1330.67M1298.45 170.835V203.068M1298.45 170.835H1330.67M1298.45 203.068V235.301M1298.45 203.068H1330.67M1298.45 235.301V267.534M1298.45 235.301H1330.67M1298.45 267.534V299.767M1298.45 267.534H1330.67M1298.45 299.767V332M1298.45 299.767H1330.67M1298.45 332V364.233M1298.45 332H1330.67M1298.45 364.233V396.466M1298.45 364.233H1330.67M1298.45 396.466V428.699M1298.45 396.466H1330.67M1298.45 428.699V460.932M1298.45 428.699H1330.67M1298.45 460.932V493.165M1298.45 460.932H1330.67M1298.45 493.165V525.398M1298.45 493.165H1330.67M1298.45 525.398V557.631M1298.45 525.398H1330.67M1298.45 557.631V589.864M1298.45 557.631H1330.67M1298.45 589.864V622.097M1298.45 589.864H1330.67M1298.45 622.097V654.33M1298.45 622.097H1330.67M1298.45 654.33H1330.67M1330.67 9.66992V41.9029M1330.67 9.66992H1362.89M1330.67 41.9029V74.1359M1330.67 41.9029H1362.89M1330.67 74.1359V106.369M1330.67 74.1359H1362.89M1330.67 106.369V138.602M1330.67 106.369H1362.89M1330.67 138.602V170.835M1330.67 138.602H1362.89M1330.67 170.835V203.068M1330.67 170.835H1362.89M1330.67 203.068V235.301M1330.67 203.068H1362.89M1330.67 235.301V267.534M1330.67 235.301H1362.89M1330.67 267.534V299.767M1330.67 267.534H1362.89M1330.67 299.767V332M1330.67 299.767H1362.89M1330.67 332V364.233M1330.67 332H1362.89M1330.67 364.233V396.466M1330.67 364.233H1362.89M1330.67 396.466V428.699M1330.67 396.466H1362.89M1330.67 428.699V460.932M1330.67 428.699H1362.89M1330.67 460.932V493.165M1330.67 460.932H1362.89M1330.67 493.165V525.398M1330.67 493.165H1362.89M1330.67 525.398V557.631M1330.67 525.398H1362.89M1330.67 557.631V589.864M1330.67 557.631H1362.89M1330.67 589.864V622.097M1330.67 589.864H1362.89M1330.67 622.097V654.33M1330.67 622.097H1362.89M1330.67 654.33H1362.89M1362.89 9.66992V41.9029M1362.89 9.66992H1395.11M1362.89 41.9029V74.1359M1362.89 41.9029H1395.11M1362.89 74.1359V106.369M1362.89 74.1359H1395.11M1362.89 106.369V138.602M1362.89 106.369H1395.11M1362.89 138.602V170.835M1362.89 138.602H1395.11M1362.89 170.835V203.068M1362.89 170.835H1395.11M1362.89 203.068V235.301M1362.89 203.068H1395.11M1362.89 235.301V267.534M1362.89 235.301H1395.11M1362.89 267.534V299.767M1362.89 267.534H1395.11M1362.89 299.767V332M1362.89 299.767H1395.11M1362.89 332V364.233M1362.89 332H1395.11M1362.89 364.233V396.466M1362.89 364.233H1395.11M1362.89 396.466V428.699M1362.89 396.466H1395.11M1362.89 428.699V460.932M1362.89 428.699H1395.11M1362.89 460.932V493.165M1362.89 460.932H1395.11M1362.89 493.165V525.398M1362.89 493.165H1395.11M1362.89 525.398V557.631M1362.89 525.398H1395.11M1362.89 557.631V589.864M1362.89 557.631H1395.11M1362.89 589.864V622.097M1362.89 589.864H1395.11M1362.89 622.097V654.33M1362.89 622.097H1395.11M1362.89 654.33H1395.11M1395.11 9.66992V41.9029M1395.11 9.66992H1427.33V41.9029M1395.11 41.9029V74.1359M1395.11 41.9029H1427.33M1395.11 74.1359V106.369M1395.11 74.1359H1427.33M1395.11 106.369V138.602M1395.11 106.369H1427.33M1395.11 138.602V170.835M1395.11 138.602H1427.33M1395.11 170.835V203.068M1395.11 170.835H1427.33M1395.11 203.068V235.301M1395.11 203.068H1427.33M1395.11 235.301V267.534M1395.11 235.301H1427.33M1395.11 267.534V299.767M1395.11 267.534H1427.33M1395.11 299.767V332M1395.11 299.767H1427.33M1395.11 332V364.233M1395.11 332H1427.33M1395.11 364.233V396.466M1395.11 364.233H1427.33M1395.11 396.466V428.699M1395.11 396.466H1427.33M1395.11 428.699V460.932M1395.11 428.699H1427.33M1395.11 460.932V493.165M1395.11 460.932H1427.33M1395.11 493.165V525.398M1395.11 493.165H1427.33M1395.11 525.398V557.631M1395.11 525.398H1427.33M1395.11 557.631V589.864M1395.11 557.631H1427.33M1395.11 589.864V622.097M1395.11 589.864H1427.33M1395.11 622.097V654.33M1395.11 622.097H1427.33M1395.11 654.33H1427.33V622.097M1427.33 41.9029V74.1359M1427.33 74.1359V106.369M1427.33 106.369V138.602M1427.33 138.602V170.835M1427.33 170.835V203.068M1427.33 203.068V235.301M1427.33 235.301V267.534M1427.33 267.534V299.767M1427.33 299.767V332M1427.33 332V364.233M1427.33 364.233V396.466M1427.33 396.466V428.699M1427.33 428.699V460.932M1427.33 460.932V493.165M1427.33 493.165V525.398M1427.33 525.398V557.631M1427.33 557.631V589.864M1427.33 589.864V622.097" stroke="url(#paint0_radial_1957_5646)" stroke-opacity="0.6" stroke-width="0.402747"/>
</g>
<g style="mix-blend-mode:soft-light" opacity="0.8">
<path d="M138.142 128.932V138.602H138.948V128.932H138.142ZM138.142 138.602V148.272H138.948V138.602H138.142ZM128.879 139.005H138.545V138.199H128.879V139.005ZM138.545 139.005H148.211V138.199H138.545V139.005ZM138.142 386.796V396.466H138.948V386.796H138.142ZM138.142 396.466V406.136H138.948V396.466H138.142ZM128.879 396.869H138.545V396.063H128.879V396.869ZM138.545 396.869H148.211V396.063H138.545V396.869ZM138.142 644.66V654.33H138.948V644.66H138.142ZM138.142 654.33V664H138.948V654.33H138.142ZM128.879 654.733H138.545V653.927H128.879V654.733ZM138.545 654.733H148.211V653.927H138.545V654.733ZM395.9 128.932V138.602H396.706V128.932H395.9ZM395.9 138.602V148.272H396.706V138.602H395.9ZM386.637 139.005H396.303V138.199H386.637V139.005ZM396.303 139.005H405.969V138.199H396.303V139.005ZM395.9 386.796V396.466H396.706V386.796H395.9ZM395.9 396.466V406.136H396.706V396.466H395.9ZM386.637 396.869H396.303V396.063H386.637V396.869ZM396.303 396.869H405.969V396.063H396.303V396.869ZM395.9 644.66V654.33H396.706V644.66H395.9ZM395.9 654.33V664H396.706V654.33H395.9ZM386.637 654.733H396.303V653.927H386.637V654.733ZM396.303 654.733H405.969V653.927H396.303V654.733ZM653.658 128.932V138.602H654.463V128.932H653.658ZM653.658 138.602V148.272H654.463V138.602H653.658ZM644.395 139.005H654.061V138.199H644.395V139.005ZM654.061 139.005H663.727V138.199H654.061V139.005ZM653.658 386.796V396.466H654.463V386.796H653.658ZM653.658 396.466V406.136H654.463V396.466H653.658ZM644.395 396.869H654.061V396.063H644.395V396.869ZM654.061 396.869H663.727V396.063H654.061V396.869ZM653.658 644.66V654.33H654.463V644.66H653.658ZM653.658 654.33V664H654.463V654.33H653.658ZM644.395 654.733H654.061V653.927H644.395V654.733ZM654.061 654.733H663.727V653.927H654.061V654.733ZM911.416 128.932V138.602H912.221V128.932H911.416ZM911.416 138.602V148.272H912.221V138.602H911.416ZM902.153 139.005H911.819V138.199H902.153V139.005ZM911.819 139.005H921.484V138.199H911.819V139.005ZM911.416 386.796V396.466H912.221V386.796H911.416ZM911.416 396.466V406.136H912.221V396.466H911.416ZM902.153 396.869H911.819V396.063H902.153V396.869ZM911.819 396.869H921.484V396.063H911.819V396.869ZM911.416 644.66V654.33H912.221V644.66H911.416ZM911.416 654.33V664H912.221V654.33H911.416ZM902.153 654.733H911.819V653.927H902.153V654.733ZM911.819 654.733H921.484V653.927H911.819V654.733ZM1169.17 128.932V138.602H1169.98V128.932H1169.17ZM1169.17 138.602V148.272H1169.98V138.602H1169.17ZM1159.91 139.005H1169.58V138.199H1159.91V139.005ZM1169.58 139.005H1179.24V138.199H1169.58V139.005ZM1169.17 386.796V396.466H1169.98V386.796H1169.17ZM1169.17 396.466V406.136H1169.98V396.466H1169.17ZM1159.91 396.869H1169.58V396.063H1159.91V396.869ZM1169.58 396.869H1179.24V396.063H1169.58V396.869ZM1169.17 644.66V654.33H1169.98V644.66H1169.17ZM1169.17 654.33V664H1169.98V654.33H1169.17ZM1159.91 654.733H1169.58V653.927H1159.91V654.733ZM1169.58 654.733H1179.24V653.927H1169.58V654.733ZM1426.93 128.932V138.602H1427.74V128.932H1426.93ZM1426.93 138.602V148.272H1427.74V138.602H1426.93ZM1417.67 139.005H1427.33V138.199H1417.67V139.005ZM1427.33 139.005H1437V138.199H1427.33V139.005ZM1426.93 386.796V396.466H1427.74V386.796H1426.93ZM1426.93 396.466V406.136H1427.74V396.466H1426.93ZM1417.67 396.869H1427.33V396.063H1417.67V396.869ZM1427.33 396.869H1437V396.063H1427.33V396.869ZM1426.93 644.66V654.33H1427.74V644.66H1426.93ZM1426.93 654.33V664H1427.74V654.33H1426.93ZM1417.67 654.733H1427.33V653.927H1417.67V654.733ZM1427.33 654.733H1437V653.927H1427.33V654.733ZM138.142 0V9.6699H138.948V0H138.142ZM138.142 9.6699V19.3398H138.948V9.6699H138.142ZM128.879 10.0727H138.545V9.26716H128.879V10.0727ZM138.545 10.0727H148.211V9.26716H138.545V10.0727ZM138.142 257.864V267.534H138.948V257.864H138.142ZM138.142 267.534V277.204H138.948V267.534H138.142ZM128.879 267.937H138.545V267.131H128.879V267.937ZM138.545 267.937H148.211V267.131H138.545V267.937ZM138.142 515.728V525.398H138.948V515.728H138.142ZM138.142 525.398V535.068H138.948V525.398H138.142ZM128.879 525.801H138.545V524.995H128.879V525.801ZM138.545 525.801H148.211V524.995H138.545V525.801ZM395.9 0V9.6699H396.706V0H395.9ZM395.9 9.6699V19.3398H396.706V9.6699H395.9ZM386.637 10.0727H396.303V9.26716H386.637V10.0727ZM396.303 10.0727H405.969V9.26716H396.303V10.0727ZM395.9 257.864V267.534H396.706V257.864H395.9ZM395.9 267.534V277.204H396.706V267.534H395.9ZM386.637 267.937H396.303V267.131H386.637V267.937ZM396.303 267.937H405.969V267.131H396.303V267.937ZM395.9 515.728V525.398H396.706V515.728H395.9ZM395.9 525.398V535.068H396.706V525.398H395.9ZM386.637 525.801H396.303V524.995H386.637V525.801ZM396.303 525.801H405.969V524.995H396.303V525.801ZM653.658 0V9.6699H654.463V0H653.658ZM653.658 9.6699V19.3398H654.463V9.6699H653.658ZM644.395 10.0727H654.061V9.26716H644.395V10.0727ZM654.061 10.0727H663.727V9.26716H654.061V10.0727ZM653.658 257.864V267.534H654.463V257.864H653.658ZM653.658 267.534V277.204H654.463V267.534H653.658ZM644.395 267.937H654.061V267.131H644.395V267.937ZM654.061 267.937H663.727V267.131H654.061V267.937ZM653.658 515.728V525.398H654.463V515.728H653.658ZM653.658 525.398V535.068H654.463V525.398H653.658ZM644.395 525.801H654.061V524.995H644.395V525.801ZM654.061 525.801H663.727V524.995H654.061V525.801ZM911.416 0V9.6699H912.221V0H911.416ZM911.416 9.6699V19.3398H912.221V9.6699H911.416ZM902.153 10.0727H911.819V9.26716H902.153V10.0727ZM911.819 10.0727H921.484V9.26716H911.819V10.0727ZM911.416 257.864V267.534H912.221V257.864H911.416ZM911.416 267.534V277.204H912.221V267.534H911.416ZM902.153 267.937H911.819V267.131H902.153V267.937ZM911.819 267.937H921.484V267.131H911.819V267.937ZM911.416 515.728V525.398H912.221V515.728H911.416ZM911.416 525.398V535.068H912.221V525.398H911.416ZM902.153 525.801H911.819V524.995H902.153V525.801ZM911.819 525.801H921.484V524.995H911.819V525.801ZM1169.17 0V9.6699H1169.98V0H1169.17ZM1169.17 9.6699V19.3398H1169.98V9.6699H1169.17ZM1159.91 10.0727H1169.58V9.26716H1159.91V10.0727ZM1169.58 10.0727H1179.24V9.26716H1169.58V10.0727ZM1169.17 257.864V267.534H1169.98V257.864H1169.17ZM1169.17 267.534V277.204H1169.98V267.534H1169.17ZM1159.91 267.937H1169.58V267.131H1159.91V267.937ZM1169.58 267.937H1179.24V267.131H1169.58V267.937ZM1169.17 515.728V525.398H1169.98V515.728H1169.17ZM1169.17 525.398V535.068H1169.98V525.398H1169.17ZM1159.91 525.801H1169.58V524.995H1159.91V525.801ZM1169.58 525.801H1179.24V524.995H1169.58V525.801ZM1426.93 0V9.6699H1427.74V0H1426.93ZM1426.93 9.6699V19.3398H1427.74V9.6699H1426.93ZM1417.67 10.0727H1427.33V9.26716H1417.67V10.0727ZM1427.33 10.0727H1437V9.26716H1427.33V10.0727ZM1426.93 257.864V267.534H1427.74V257.864H1426.93ZM1426.93 267.534V277.204H1427.74V267.534H1426.93ZM1417.67 267.937H1427.33V267.131H1417.67V267.937ZM1427.33 267.937H1437V267.131H1427.33V267.937ZM1426.93 515.728V525.398H1427.74V515.728H1426.93ZM1426.93 525.398V535.068H1427.74V525.398H1426.93ZM1417.67 525.801H1427.33V524.995H1417.67V525.801ZM1427.33 525.801H1437V524.995H1427.33V525.801ZM9.26317 128.932V138.602H10.0687V128.932H9.26317ZM9.26317 138.602V148.272H10.0687V138.602H9.26317ZM0 139.005H9.66592V138.199H0V139.005ZM9.66592 139.005H19.3318V138.199H9.66592V139.005ZM9.26317 386.796V396.466H10.0687V386.796H9.26317ZM9.26317 396.466V406.136H10.0687V396.466H9.26317ZM0 396.869H9.66592V396.063H0V396.869ZM9.66592 396.869H19.3318V396.063H9.66592V396.869ZM9.26317 644.66V654.33H10.0687V644.66H9.26317ZM9.26317 654.33V664H10.0687V654.33H9.26317ZM0 654.733H9.66592V653.927H0V654.733ZM9.66592 654.733H19.3318V653.927H9.66592V654.733ZM267.021 128.932V138.602H267.827V128.932H267.021ZM267.021 138.602V148.272H267.827V138.602H267.021ZM257.758 139.005H267.424V138.199H257.758V139.005ZM267.424 139.005H277.09V138.199H267.424V139.005ZM267.021 386.796V396.466H267.827V386.796H267.021ZM267.021 396.466V406.136H267.827V396.466H267.021ZM257.758 396.869H267.424V396.063H257.758V396.869ZM267.424 396.869H277.09V396.063H267.424V396.869ZM267.021 644.66V654.33H267.827V644.66H267.021ZM267.021 654.33V664H267.827V654.33H267.021ZM257.758 654.733H267.424V653.927H257.758V654.733ZM267.424 654.733H277.09V653.927H267.424V654.733ZM524.779 128.932V138.602H525.584V128.932H524.779ZM524.779 138.602V148.272H525.584V138.602H524.779ZM515.516 139.005H525.182V138.199H515.516V139.005ZM525.182 139.005H534.848V138.199H525.182V139.005ZM524.779 386.796V396.466H525.584V386.796H524.779ZM524.779 396.466V406.136H525.584V396.466H524.779ZM515.516 396.869H525.182V396.063H515.516V396.869ZM525.182 396.869H534.848V396.063H525.182V396.869ZM524.779 644.66V654.33H525.584V644.66H524.779ZM524.779 654.33V664H525.584V654.33H524.779ZM515.516 654.733H525.182V653.927H515.516V654.733ZM525.182 654.733H534.848V653.927H525.182V654.733ZM782.537 128.932V138.602H783.342V128.932H782.537ZM782.537 138.602V148.272H783.342V138.602H782.537ZM773.274 139.005H782.94V138.199H773.274V139.005ZM782.94 139.005H792.606V138.199H782.94V139.005ZM782.537 386.796V396.466H783.342V386.796H782.537ZM782.537 396.466V406.136H783.342V396.466H782.537ZM773.274 396.869H782.94V396.063H773.274V396.869ZM782.94 396.869H792.606V396.063H782.94V396.869ZM782.537 644.66V654.33H783.342V644.66H782.537ZM782.537 654.33V664H783.342V654.33H782.537ZM773.274 654.733H782.94V653.927H773.274V654.733ZM782.94 654.733H792.606V653.927H782.94V654.733ZM1040.29 128.932V138.602H1041.1V128.932H1040.29ZM1040.29 138.602V148.272H1041.1V138.602H1040.29ZM1031.03 139.005H1040.7V138.199H1031.03V139.005ZM1040.7 139.005H1050.36V138.199H1040.7V139.005ZM1040.29 386.796V396.466H1041.1V386.796H1040.29ZM1040.29 396.466V406.136H1041.1V396.466H1040.29ZM1031.03 396.869H1040.7V396.063H1031.03V396.869ZM1040.7 396.869H1050.36V396.063H1040.7V396.869ZM1040.29 644.66V654.33H1041.1V644.66H1040.29ZM1040.29 654.33V664H1041.1V654.33H1040.29ZM1031.03 654.733H1040.7V653.927H1031.03V654.733ZM1040.7 654.733H1050.36V653.927H1040.7V654.733ZM1298.05 128.932V138.602H1298.86V128.932H1298.05ZM1298.05 138.602V148.272H1298.86V138.602H1298.05ZM1288.79 139.005H1298.46V138.199H1288.79V139.005ZM1298.46 139.005H1308.12V138.199H1298.46V139.005ZM1298.05 386.796V396.466H1298.86V386.796H1298.05ZM1298.05 396.466V406.136H1298.86V396.466H1298.05ZM1288.79 396.869H1298.46V396.063H1288.79V396.869ZM1298.46 396.869H1308.12V396.063H1298.46V396.869ZM1298.05 644.66V654.33H1298.86V644.66H1298.05ZM1298.05 654.33V664H1298.86V654.33H1298.05ZM1288.79 654.733H1298.46V653.927H1288.79V654.733ZM1298.46 654.733H1308.12V653.927H1298.46V654.733ZM9.26317 4.75373e-05V9.66995H10.0687V4.75373e-05H9.26317ZM9.26317 9.66995V19.3399H10.0687V9.66995H9.26317ZM0 10.0727H9.66592V9.2672H0V10.0727ZM9.66592 10.0727H19.3318V9.2672H9.66592V10.0727ZM9.26317 257.864V267.534H10.0687V257.864H9.26317ZM9.26317 267.534V277.204H10.0687V267.534H9.26317ZM0 267.937H9.66592V267.131H0V267.937ZM9.66592 267.937H19.3318V267.131H9.66592V267.937ZM9.26317 515.728V525.398H10.0687V515.728H9.26317ZM9.26317 525.398V535.068H10.0687V525.398H9.26317ZM0 525.801H9.66592V524.995H0V525.801ZM9.66592 525.801H19.3318V524.995H9.66592V525.801ZM267.021 0V9.6699H267.827V0H267.021ZM267.021 9.6699V19.3398H267.827V9.6699H267.021ZM257.758 10.0727H267.424V9.26716H257.758V10.0727ZM267.424 10.0727H277.09V9.26716H267.424V10.0727ZM267.021 257.864V267.534H267.827V257.864H267.021ZM267.021 267.534V277.204H267.827V267.534H267.021ZM257.758 267.937H267.424V267.131H257.758V267.937ZM267.424 267.937H277.09V267.131H267.424V267.937ZM267.021 515.728V525.398H267.827V515.728H267.021ZM267.021 525.398V535.068H267.827V525.398H267.021ZM257.758 525.801H267.424V524.995H257.758V525.801ZM267.424 525.801H277.09V524.995H267.424V525.801ZM524.779 0V9.6699H525.584V0H524.779ZM524.779 9.6699V19.3398H525.584V9.6699H524.779ZM515.516 10.0727H525.182V9.26716H515.516V10.0727ZM525.182 10.0727H534.848V9.26716H525.182V10.0727ZM524.779 257.864V267.534H525.584V257.864H524.779ZM524.779 267.534V277.204H525.584V267.534H524.779ZM515.516 267.937H525.182V267.131H515.516V267.937ZM525.182 267.937H534.848V267.131H525.182V267.937ZM524.779 515.728V525.398H525.584V515.728H524.779ZM524.779 525.398V535.068H525.584V525.398H524.779ZM515.516 525.801H525.182V524.995H515.516V525.801ZM525.182 525.801H534.848V524.995H525.182V525.801ZM782.537 0V9.6699H783.342V0H782.537ZM782.537 9.6699V19.3398H783.342V9.6699H782.537ZM773.274 10.0727H782.94V9.26716H773.274V10.0727ZM782.94 10.0727H792.606V9.26716H782.94V10.0727ZM782.537 257.864V267.534H783.342V257.864H782.537ZM782.537 267.534V277.204H783.342V267.534H782.537ZM773.274 267.937H782.94V267.131H773.274V267.937ZM782.94 267.937H792.606V267.131H782.94V267.937ZM782.537 515.728V525.398H783.342V515.728H782.537ZM782.537 525.398V535.068H783.342V525.398H782.537ZM773.274 525.801H782.94V524.995H773.274V525.801ZM782.94 525.801H792.606V524.995H782.94V525.801ZM1040.29 0V9.6699H1041.1V0H1040.29ZM1040.29 9.6699V19.3398H1041.1V9.6699H1040.29ZM1031.03 10.0727H1040.7V9.26716H1031.03V10.0727ZM1040.7 10.0727H1050.36V9.26716H1040.7V10.0727ZM1040.29 257.864V267.534H1041.1V257.864H1040.29ZM1040.29 267.534V277.204H1041.1V267.534H1040.29ZM1031.03 267.937H1040.7V267.131H1031.03V267.937ZM1040.7 267.937H1050.36V267.131H1040.7V267.937ZM1040.29 515.728V525.398H1041.1V515.728H1040.29ZM1040.29 525.398V535.068H1041.1V525.398H1040.29ZM1031.03 525.801H1040.7V524.995H1031.03V525.801ZM1040.7 525.801H1050.36V524.995H1040.7V525.801ZM1298.05 0V9.6699H1298.86V0H1298.05ZM1298.05 9.6699V19.3398H1298.86V9.6699H1298.05ZM1288.79 10.0727H1298.46V9.26716H1288.79V10.0727ZM1298.46 10.0727H1308.12V9.26716H1298.46V10.0727ZM1298.05 257.864V267.534H1298.86V257.864H1298.05ZM1298.05 267.534V277.204H1298.86V267.534H1298.05ZM1288.79 267.937H1298.46V267.131H1288.79V267.937ZM1298.46 267.937H1308.12V267.131H1298.46V267.937ZM1298.05 515.728V525.398H1298.86V515.728H1298.05ZM1298.05 525.398V535.068H1298.86V525.398H1298.05ZM1288.79 525.801H1298.46V524.995H1288.79V525.801ZM1298.46 525.801H1308.12V524.995H1298.46V525.801Z" fill="url(#paint1_radial_1957_5646)" fill-opacity="0.6"/>
</g>
<defs>
<radialGradient id="paint0_radial_1957_5646" cx="0" cy="0" r="1" gradientUnits="userSpaceOnUse" gradientTransform="translate(718.498 332) rotate(90) scale(322.33 708.834)">
<stop stop-color="white"/>
<stop offset="1" stop-color="white" stop-opacity="0"/>
</radialGradient>
<radialGradient id="paint1_radial_1957_5646" cx="0" cy="0" r="1" gradientUnits="userSpaceOnUse" gradientTransform="translate(718.5 332) rotate(90) scale(332 718.5)">
<stop stop-color="white"/>
<stop offset="1" stop-color="white" stop-opacity="0"/>
</radialGradient>
</defs>
</svg>
